<svg width="71" height="24" viewBox="0 0 71 24" fill="none" xmlns="http://www.w3.org/2000/svg">
<path fill-rule="evenodd" clip-rule="evenodd" d="M71.0001 9.41296C70.8895 10.099 70.801 10.785 70.6756 11.4637C70.351 13.1898 69.9748 14.9085 69.7018 16.6421C69.5986 17.3133 69.6945 18.0215 69.7461 18.7149C69.7756 19.1353 69.8125 19.128 69.3994 19.128C68.0642 19.128 66.7217 19.1206 65.3865 19.1353C65.1357 19.1353 65.0251 19.0763 64.9956 18.8108C64.9144 18.11 64.8997 18.11 64.3095 18.4862C62.9744 19.3345 61.5581 19.7476 59.9721 19.4009C58.3566 19.0468 57.3017 17.7338 57.4493 16.2142C57.5968 14.7241 58.3566 13.5955 59.5442 12.7251C60.3704 12.1202 61.2999 11.7587 62.2662 11.4342C63.3875 11.0653 64.5013 10.6596 65.5931 10.2244C66.6627 9.79654 66.8766 8.79332 66.6701 7.87862C66.611 7.59831 66.4119 7.39914 66.1316 7.318C65.4455 7.12621 64.5751 7.27374 64.3981 8.00402C64.3538 8.18844 64.3538 8.39499 64.3907 8.5794C64.5013 9.16953 64.4276 9.3687 63.8596 9.59738C63.1735 9.87031 62.4875 10.1506 61.7203 10.0252C61.1081 9.92195 60.6655 9.59 60.3704 9.05888C59.8541 8.12205 59.7508 7.13358 59.9721 6.09348C60.0016 5.96808 60.0237 5.8353 60.1934 5.93857C61.0564 6.47706 62.008 6.30002 62.9227 6.24101C63.9038 6.182 64.8775 5.96808 65.8586 5.88693C67.0463 5.79104 68.2265 5.90169 69.3551 6.30002C70.3657 6.6541 70.8231 7.42127 70.9337 8.44662C70.9485 8.57202 70.978 8.7048 71.0001 8.83021C71.0001 9.022 71.0001 9.21379 71.0001 9.41296ZM66.1021 11.3899C65.689 11.5669 65.3128 11.6776 64.9956 11.8768C63.926 12.548 63.0924 13.4553 62.4801 14.5545C62.1629 15.1225 62.0523 15.7347 62.1261 16.3765C62.222 17.2322 62.9817 17.8002 63.7047 17.5051C64.5013 17.1805 65.1874 16.7084 65.2611 15.7273C65.2759 15.5577 65.3275 15.388 65.357 15.2184C65.6004 13.9791 65.8439 12.7398 66.1021 11.3899Z" fill="#32AA4C"/>
<path fill-rule="evenodd" clip-rule="evenodd" d="M50.5739 22.7719C50.5518 22.7719 50.537 22.7646 50.5149 22.7646C50.2715 22.7277 50.028 22.6613 49.792 22.5949C49.792 22.5949 49.8879 22.4916 49.9026 22.4843C50.8468 21.7687 51.3116 20.7803 51.5403 19.6516C52.2263 16.251 52.8975 12.8504 53.5762 9.44239C53.6426 9.1252 53.6942 8.80062 53.768 8.48343C53.9524 7.75314 53.9081 7.05236 53.5688 6.35896C53.4065 6.02701 53.4287 6.01226 53.7975 6.01226C55.2728 6.01226 56.7555 6.01964 58.2309 6.00488C58.4595 6.00488 58.5185 6.04177 58.4743 6.29257C57.9727 8.81538 57.4932 11.3382 56.999 13.861C56.6006 15.9117 56.1875 17.9698 55.8039 20.0278C55.6564 20.8245 55.2286 21.422 54.5573 21.8572C53.65 22.44 52.5361 22.7498 51.4591 22.8015C51.1714 22.8162 50.869 22.8088 50.5739 22.7719Z" fill="#32AA4C"/>
<path fill-rule="evenodd" clip-rule="evenodd" d="M14.3549 13.2488C14.1041 13.8315 13.8164 14.6282 13.4181 15.3659C12.6509 16.7822 11.6182 17.9477 10.1207 18.6337C9.41995 18.9509 8.68229 19.1353 7.91512 19.1353C5.34805 19.1427 2.78099 19.1427 0.213922 19.1427C0.147532 19.1427 0.0885195 19.1353 0 19.1279C0.0295065 19.0468 0.0442597 18.9656 0.0811429 18.914C0.752416 17.9108 1.01797 16.7674 1.24665 15.5945C2.02119 11.589 2.83262 7.59827 3.63668 3.60014C3.7547 3.00263 3.65881 2.43463 3.5039 1.86663C3.44488 1.66009 3.47439 1.60107 3.69569 1.60107C5.19314 1.60845 6.69797 1.60845 8.19543 1.60107C8.3946 1.60107 8.4241 1.66009 8.38722 1.85188C8.03314 3.62227 7.69382 5.40004 7.33974 7.20731C7.56842 7.06715 7.79709 6.91962 8.01839 6.78684C8.84457 6.29998 9.71501 5.88689 10.6961 5.84263C12.7616 5.74674 14.1557 6.8311 14.6205 8.8523C14.8196 9.72274 14.7975 10.6006 14.6942 11.5595C14.8491 11.1612 14.9524 10.8292 15.0926 10.512C16.3614 7.77531 18.4932 6.21884 21.4807 5.83526C22.8528 5.65822 24.1953 5.73936 25.4567 6.36637C26.7476 7.00814 27.6992 7.95235 27.8984 9.4498C28.0312 10.4235 27.9353 11.4046 27.7213 12.3636C27.6771 12.5701 27.5296 12.5554 27.382 12.5554C24.9035 12.5627 22.4249 12.5701 19.9464 12.5627C19.6513 12.5627 19.5407 12.6365 19.489 12.9389C19.2972 14.0381 19.0391 15.1298 19.1202 16.2658C19.2087 17.4829 19.9243 18.1985 21.1488 18.2427C22.8528 18.3091 24.1216 17.4239 24.5125 15.9117C24.6453 15.4027 24.6305 14.8938 24.4092 14.4143C24.3281 14.2299 24.3724 14.1487 24.5494 14.1266C24.8813 14.0823 25.2207 13.979 25.5379 14.0307C26.4304 14.1561 26.8657 14.9159 26.6739 15.8896C26.4673 16.9297 25.8551 17.6747 24.992 18.228C23.5757 19.1353 22.0192 19.5336 20.3447 19.4525C19.2751 19.4009 18.2203 19.2681 17.2392 18.8181C15.4098 17.9919 14.4582 16.5609 14.3697 14.5618C14.3402 14.0454 14.3549 13.5438 14.3549 13.2488ZM10.1207 9.81126C10.0322 9.39817 9.98057 8.9777 9.84779 8.58674C9.70764 8.16627 9.36831 7.9671 8.91834 7.95972C8.35771 7.95235 7.94462 8.22528 7.59055 8.61624C7.07418 9.18424 6.77174 9.87027 6.60208 10.6079C6.41766 11.412 6.27013 12.2234 6.11522 13.0275C5.81278 14.5839 5.51034 16.133 5.2079 17.6895C5.18577 17.8075 5.14151 17.9034 5.32592 17.896C5.68 17.8813 6.06358 17.9403 6.39553 17.8444C7.64956 17.4829 8.54213 16.6936 8.95522 15.4249C9.15439 14.8052 9.29455 14.1708 9.44208 13.5365C9.71501 12.3119 10.0175 11.0948 10.1207 9.81126ZM21.4807 11.3677C21.9381 11.3677 22.3954 11.3603 22.8454 11.3751C23.0519 11.3825 23.1552 11.3456 23.1847 11.1095C23.2364 10.7112 23.3618 10.3276 23.4134 9.92928C23.5019 9.21375 23.6199 8.49084 23.6126 7.77531C23.6126 7.16305 23.1478 6.80159 22.5208 6.80897C21.7315 6.81635 21.1783 7.24419 20.839 7.90809C20.3226 8.91868 20.0497 10.0104 19.8357 11.1169C19.7989 11.3235 19.8726 11.3751 20.0718 11.3751C20.5513 11.3603 21.016 11.3677 21.4807 11.3677Z" fill="#D21E20"/>
<path fill-rule="evenodd" clip-rule="evenodd" d="M45.7424 1.14355C47.3948 1.16568 49.0545 1.50501 50.4487 2.64839C51.8576 3.80652 52.6469 5.31135 52.7945 7.13337C53.0748 10.5192 51.4445 15.8009 46.8342 18.2795C45.2039 19.1499 43.463 19.504 41.6263 19.4818C40.2542 19.4671 38.919 19.2605 37.6503 18.7294C37.215 18.545 36.7872 18.309 36.4184 18.0139C35.4299 17.2172 35.3856 15.8968 36.2708 14.9378C37.5839 13.5289 40.2026 13.5658 41.4861 15.0116C41.6779 15.2329 41.7222 15.3583 41.4418 15.5501C40.8886 15.9337 40.5345 16.4648 40.623 17.1803C40.7042 17.8074 41.2501 18.2868 41.9361 18.4049C42.6442 18.5303 43.3081 18.3827 43.8024 17.8737C44.2892 17.3721 44.7392 16.8189 45.1007 16.2214C45.9195 14.8493 46.4137 13.3445 46.6792 11.7733C46.694 11.6774 46.6571 11.5741 46.6424 11.4708C46.5612 11.5077 46.4653 11.5372 46.3989 11.5889C44.8425 12.7101 43.1237 13.315 41.191 13.2486C39.6198 13.197 38.2478 12.6953 37.2814 11.3823C36.4626 10.2758 36.3298 9.02917 36.5659 7.7235C37.1339 4.55893 39.1994 2.75166 42.0836 1.71893C43.2417 1.30584 44.4368 1.15831 45.7424 1.14355ZM41.9287 8.53493C41.9803 8.91852 42.0098 9.37587 42.0984 9.81847C42.3492 11.043 43.1016 11.5593 44.3335 11.3676C45.1818 11.2348 45.8531 10.7848 46.3842 10.1357C47.8595 8.34314 48.2726 6.26293 47.8669 4.02781C47.6308 2.71478 46.7973 2.1394 45.5506 2.30168C44.7613 2.40496 44.1269 2.81067 43.6401 3.43031C42.4746 4.90563 42.0689 6.63914 41.9287 8.53493Z" fill="#32AA4C"/>
<path fill-rule="evenodd" clip-rule="evenodd" d="M34.1167 16.4428C33.6814 18.6705 31.5275 19.9319 29.4694 19.2016C28.2965 18.7812 27.6105 17.6083 27.8392 16.3764C28.385 13.4552 28.9309 10.5341 29.4841 7.61294C29.5358 7.34739 29.462 7.24411 29.1965 7.281C29.0784 7.29575 28.9604 7.3105 28.8424 7.3105C28.7465 7.3105 28.6506 7.27362 28.5547 7.25149C28.6063 7.14822 28.6285 7.01544 28.7096 6.94905C28.953 6.74988 29.2038 6.55809 29.4694 6.38842C30.3177 5.84993 30.9521 5.09751 31.5791 4.32297C32.5012 3.20172 33.4823 2.14687 34.8396 1.52723C35.3854 1.2838 35.9313 1.09201 36.5288 1.13627C36.6173 1.14364 36.7059 1.18053 36.7944 1.20266C36.7427 1.32806 36.728 1.51985 36.6395 1.57149C34.9871 2.5157 34.5961 4.16806 34.2273 5.83518C34.1831 6.01959 34.2937 5.99746 34.397 6.00484C34.8838 6.00484 35.3781 6.01222 35.8649 6.00484C36.0715 5.99746 36.101 6.07123 36.0641 6.25564C35.9977 6.55071 35.9313 6.84577 35.8871 7.14822C35.8576 7.34001 35.769 7.39164 35.5846 7.39164C35.1199 7.37689 34.6478 7.39902 34.1831 7.38427C33.9691 7.37689 33.9027 7.46541 33.8659 7.64983C33.4085 10.0325 32.9512 12.4225 32.4864 14.8052C32.4274 15.1002 32.3389 15.3953 32.2651 15.6903C32.0512 16.487 32.6045 16.7821 33.2536 16.6714C33.5339 16.6198 33.8069 16.5313 34.1167 16.4428Z" fill="#D21E20"/>
<path d="M54.0705 2.64083L54.4541 3.81371C54.4541 3.81371 54.3139 4.03501 54.2844 4.36696L54.0779 4.27107C53.7164 3.82109 53.4951 3.25309 53.4951 2.64083C53.4951 2.62608 53.4951 2.61132 53.4951 2.60395L53.6279 2.27938C53.6279 2.27938 53.7459 2.47117 54.0705 2.64083Z" fill="#FBFCFC"/>
<path d="M56.8515 2.42691L57.6998 3.16457C57.6998 3.16457 57.5154 3.87273 57.331 4.26369C57.1465 4.47023 56.254 4.63252 56.254 4.63252C55.8851 4.39647 55.3762 3.8801 55.3762 3.8801L55.6565 2.83262C55.6491 2.83262 56.0253 2.76623 56.8515 2.42691Z" fill="#FBFCFC"/>
<path d="M56.7408 5.23003C56.5712 5.26691 56.3941 5.28166 56.2097 5.28166C56.0032 5.28166 55.804 5.25953 55.6122 5.21527C55.863 5.17839 56.1064 5.112 56.1064 5.112L56.7408 5.23003Z" fill="#FBFCFC"/>
<path d="M56.2466 4.63252L56.0991 5.112C56.0991 5.112 55.8556 5.17839 55.6048 5.21527C55.295 5.14888 55.0073 5.03086 54.7491 4.86857L54.2697 4.36696C54.2992 4.03501 54.4393 3.81371 54.4393 3.81371L55.3614 3.87273C55.3762 3.8801 55.8778 4.39647 56.2466 4.63252Z" fill="#FBFCFC"/>
<path d="M57.6998 4.60301C57.6998 4.60301 57.958 4.57351 58.1424 4.48499C57.8842 4.74317 57.567 4.94234 57.2203 5.08249L57.6998 4.60301Z" fill="#FBFCFC"/>
<path d="M58.762 2.91377L58.7546 3.54078C58.6219 3.89486 58.4079 4.21943 58.1424 4.48499C57.958 4.56613 57.6998 4.60301 57.6998 4.60301L57.331 4.26369C57.5154 3.86535 57.6998 3.16457 57.6998 3.16457L58.3489 2.55231L58.762 2.91377Z" fill="#FBFCFC"/>
<path d="M58.9169 2.64083V2.64821L58.762 2.91377L58.3489 2.54494L58.0686 1.55647V0.870442L58.3489 1.01797C58.703 1.46795 58.9169 2.02857 58.9169 2.64083Z" fill="#FBFCFC"/>
<path d="M58.0686 0.877818V1.56384C57.3605 1.34992 57.1244 1.37943 57.1244 1.37943L56.2097 0.582753L56.313 0.0663896C56.313 0.0663896 56.4236 0.0368831 56.5195 0.0221299C56.9326 0.0663896 57.3162 0.206545 57.6482 0.405714L58.0686 0.877818Z" fill="#FBFCFC"/>
<path d="M56.5195 0.0221299C56.4163 0.0368831 56.313 0.0663896 56.313 0.0663896L56.0548 0.00737662C56.1064 0.00737662 56.1581 0 56.2097 0C56.313 0 56.4163 0.00737662 56.5195 0.0221299Z" fill="#FBFCFC"/>
<path d="M57.117 1.37943L56.8441 2.42691C56.0253 2.76623 55.6491 2.83262 55.6491 2.83262L54.8229 2.10971C54.8229 2.10971 54.9114 1.28353 55.0737 0.973714L56.2097 0.582753L57.117 1.37943Z" fill="#FBFCFC"/>
<path d="M54.6459 0.582753L55.0737 0.973714C54.9114 1.28353 54.8229 2.10971 54.8229 2.10971L54.0705 2.64083C53.7459 2.47117 53.6279 2.27938 53.6279 2.27938L53.6943 1.64499C53.7533 1.50483 53.8197 1.37943 53.9008 1.25403C54.1664 0.936831 54.6459 0.582753 54.6459 0.582753Z" fill="#FBFCFC"/>
<path d="M54.8229 0.368831L54.6459 0.582753C54.6459 0.582753 54.1738 0.936831 53.9008 1.25403C54.1295 0.892572 54.4467 0.59013 54.8229 0.368831Z" fill="#FBFCFC"/>
<path d="M58.762 2.91377L58.9169 2.64821C58.9169 2.95803 58.8579 3.26047 58.7546 3.54078L58.762 2.91377Z" fill="#010102"/>
<path d="M58.0686 1.56384L58.3489 2.55231L57.6998 3.16457L56.8515 2.42691L57.1244 1.37943C57.117 1.37943 57.3605 1.34992 58.0686 1.56384Z" fill="#010102"/>
<path d="M58.3489 1.01797L58.0686 0.877818L57.6482 0.405714C57.9137 0.568 58.1498 0.774546 58.3489 1.01797Z" fill="#010102"/>
<path d="M57.6998 4.60301L57.2277 5.08249C57.1318 5.11938 57.0285 5.15626 56.9252 5.18577C56.8662 5.20052 56.8072 5.21527 56.7482 5.23003L56.1138 5.11938L56.2614 4.6399C56.2614 4.6399 57.1539 4.47761 57.3383 4.27107L57.6998 4.60301Z" fill="#010102"/>
<path d="M56.3056 0.0663896L56.2023 0.582753L55.0663 0.973714L54.6385 0.582753L54.8155 0.368831C55.177 0.154909 55.5975 0.0295065 56.0401 0.00737662L56.3056 0.0663896Z" fill="#010102"/>
<path d="M55.6491 2.83262L55.3762 3.8801L54.4541 3.81371L54.0705 2.64083L54.8229 2.11709L55.6491 2.83262Z" fill="#010102"/>
<path d="M54.277 4.36696L54.7565 4.86857C54.4983 4.70629 54.2697 4.50712 54.0779 4.27107L54.277 4.36696Z" fill="#010102"/>
<path d="M53.6943 1.64499L53.6279 2.27938L53.4951 2.60395C53.5025 2.26462 53.5689 1.94005 53.6943 1.64499Z" fill="#010102"/>
<path d="M58.3489 1.01792C58.7104 1.4679 58.9243 2.02852 58.9243 2.64078V2.64816C58.9243 2.95797 58.8653 3.26042 58.762 3.54073C58.6292 3.8948 58.4153 4.21938 58.1498 4.48493C57.8916 4.74312 57.5744 4.94229 57.2277 5.08244C57.1318 5.11932 57.0285 5.15621 56.9252 5.18571C56.8662 5.20047 56.8072 5.21522 56.7482 5.22997C56.5785 5.25948 56.4015 5.28161 56.2171 5.28161C56.0105 5.28161 55.8114 5.25948 55.6196 5.21522C55.3098 5.14883 55.0221 5.0308 54.7639 4.86852C54.5057 4.70623 54.277 4.50706 54.0852 4.27101C53.7238 3.82104 53.5025 3.25304 53.5025 2.64078C53.5025 2.62603 53.5025 2.61127 53.5025 2.6039C53.5099 2.26457 53.5763 1.94738 53.7017 1.65231C53.7607 1.51216 53.8271 1.38675 53.9082 1.26135C54.1369 0.899896 54.4541 0.597454 54.8303 0.383532C55.1917 0.16961 55.6122 0.0442073 56.0548 0.0220775C56.1064 0.0220775 56.1581 0.0147008 56.2097 0.0147008C56.313 0.0147008 56.4163 0.0220775 56.5195 0.0294541C56.9326 0.0737138 57.3162 0.21387 57.6482 0.413039C57.9137 0.567948 58.1498 0.774493 58.3489 1.01792ZM58.3489 1.01792L58.0686 0.877766M56.0474 0.00732422L56.3056 0.0663372M56.3056 0.0663372L56.2097 0.582701M56.3056 0.0663372C56.3056 0.0663372 56.4163 0.0368307 56.5122 0.0220775M56.2097 0.582701L55.0663 0.973662L54.6459 0.582701M56.2097 0.582701L57.1244 1.37938C57.1244 1.37938 57.3605 1.34987 58.0686 1.56379M54.6459 0.582701L54.8229 0.368779M54.6459 0.582701C54.6459 0.582701 54.1738 0.936779 53.9008 1.25397M53.4951 2.6039L53.6279 2.27932M53.6279 2.27932L53.6943 1.64493M53.6279 2.27932C53.6279 2.27932 53.7459 2.47112 54.0705 2.64078M54.0705 2.64078L54.4541 3.81366M54.0705 2.64078L54.8229 2.11704M54.4541 3.81366L55.3762 3.88005M54.4541 3.81366C54.4541 3.81366 54.3139 4.03496 54.2844 4.36691M55.3762 3.88005L55.6491 2.83257M55.3762 3.88005C55.3762 3.88005 55.8778 4.39642 56.254 4.63247M55.6491 2.83257L54.8229 2.11704M55.6491 2.83257C55.6491 2.83257 56.0253 2.76618 56.8441 2.42686M54.8229 2.11704C54.8229 2.11704 54.9114 1.29086 55.0737 0.981039M54.0779 4.27101L54.277 4.36691L54.7565 4.86852M58.9169 2.64816L58.762 2.91371M58.762 2.91371L58.7546 3.54073M58.762 2.91371L58.3489 2.55226M57.6482 0.405662L58.0686 0.877766M58.0686 0.877766V1.56379M56.7408 5.22997L56.1064 5.11932L56.254 4.63984C56.254 4.63984 57.1465 4.47756 57.331 4.27101L57.6998 4.61034L57.2277 5.08982M58.0686 1.56379L58.3489 2.55226M58.3489 2.55226L57.6998 3.16452M57.6998 3.16452L56.8515 2.42686L57.117 1.37938M57.6998 3.16452C57.6998 3.16452 57.5154 3.87268 57.331 4.26364M57.6998 4.60296C57.6998 4.60296 57.958 4.57345 58.1424 4.48493M56.0991 5.11195C56.0991 5.11195 55.8556 5.17834 55.6048 5.21522" stroke="black" stroke-width="0.0147532" stroke-miterlimit="10"/>
</svg>
